<svg width="135" height="65" viewBox="0 0 135 65" fill="none" xmlns="http://www.w3.org/2000/svg">
<path d="M120.179 31.7105C120.179 36.3826 116.508 40.2535 111.546 40.2535C106.583 40.2535 102.982 36.3826 102.982 31.7105C102.982 27.0368 106.584 23.1643 111.546 23.1643C116.508 23.1643 120.179 27.0384 120.179 31.7105Z" fill="#FFD43D"/>
<path d="M79.8801 31.4433C79.8801 36.1829 76.0748 39.7208 71.2473 39.7208C66.4903 39.7208 62.685 36.1813 62.685 31.4433C62.685 26.702 66.4903 23.2317 71.249 23.2317C76.0748 23.2317 79.8801 26.7036 79.8801 31.4433Z" fill="#FF0C81"/>
<path d="M32.8832 40.2535C37.845 40.2535 41.516 36.3826 41.516 31.7105C41.516 27.0368 37.845 23.1643 32.8832 23.1643C27.9198 23.1643 24.3192 27.0368 24.3192 31.7089C24.3192 36.3826 27.9214 40.2535 32.8832 40.2535Z" fill="#11EEFC"/>
<path d="M111.546 49.1343C101.215 49.1343 93.3306 41.2557 93.3306 31.6429C93.3306 22.0959 101.284 14.219 111.546 14.219C121.947 14.219 129.831 22.1635 129.831 31.6429C129.831 41.2557 121.878 49.1327 111.546 49.1327V49.1343ZM111.546 40.2534C116.51 40.2534 120.179 36.3825 120.179 31.7104C120.179 27.0367 116.51 23.1642 111.546 23.1642C106.584 23.1642 102.982 27.0367 102.982 31.7088C102.982 36.3825 106.584 40.2534 111.546 40.2534ZM70.5692 64.354C62.6851 64.354 56.6356 60.9497 53.5772 54.8071L61.5974 50.5356C63.093 53.4058 65.8794 55.6759 70.4333 55.6759C76.1437 55.6759 80.0161 51.7374 80.0161 45.2618V44.6601C78.1815 46.9302 74.92 48.6661 70.1613 48.6661C60.7128 48.6661 53.1694 41.4568 53.1694 31.6429C53.1694 22.0959 61.0535 14.2866 71.385 14.2866C81.9196 14.2866 89.6694 21.6953 89.6694 31.6429V44.9947C89.6694 56.7441 81.5117 64.354 70.5692 64.354ZM71.249 39.7209C76.0749 39.7209 79.8818 36.1814 79.8818 31.4434C79.8818 26.7021 76.0749 23.2318 71.249 23.2318C66.4904 23.2318 62.6851 26.7037 62.6851 31.4434C62.6851 36.183 66.4904 39.7209 71.249 39.7209ZM32.8832 49.1343C22.5517 49.1343 14.6675 41.2557 14.6675 31.6429C14.6675 22.0959 22.6188 14.219 32.8832 14.219C43.2818 14.219 51.1676 22.1635 51.1676 31.6429C51.1676 41.2557 43.2146 49.1327 32.8832 49.1327V49.1343ZM32.8832 40.2534C37.845 40.2534 41.5159 36.3825 41.5159 31.7104C41.5159 27.0367 37.845 23.1642 32.8832 23.1642C27.9197 23.1642 24.3192 27.0367 24.3192 31.7088C24.3192 36.3825 27.9214 40.2534 32.8832 40.2534ZM0 0H9.65167V48.2655H0V0ZM134.324 10.4575C134.324 11.5243 133.893 12.5473 133.125 13.3016C132.357 14.0559 131.315 14.4797 130.229 14.4797C129.143 14.4797 128.101 14.0559 127.333 13.3016C126.565 12.5473 126.133 11.5243 126.133 10.4575C126.133 9.39079 126.565 8.36775 127.333 7.61345C128.101 6.85916 129.143 6.4354 130.229 6.4354C131.315 6.4354 132.357 6.85916 133.125 7.61345C133.893 8.36775 134.324 9.39079 134.324 10.4575Z" fill="#171A26"/>
</svg>
