<svg width="135" height="66" viewBox="0 0 135 66" fill="none" xmlns="http://www.w3.org/2000/svg">
<path d="M111.546 49.8423C101.215 49.8423 93.3306 41.9637 93.3306 32.3509C93.3306 22.804 101.284 14.927 111.546 14.927C121.947 14.927 129.831 22.8715 129.831 32.3509C129.831 41.9637 121.878 49.8407 111.546 49.8407V49.8423ZM111.546 40.9614C116.51 40.9614 120.179 37.0905 120.179 32.4184C120.179 27.7447 116.51 23.8722 111.546 23.8722C106.584 23.8722 102.982 27.7447 102.982 32.4168C102.982 37.0905 106.584 40.9614 111.546 40.9614ZM70.5692 65.062C62.6851 65.062 56.6356 61.6577 53.5772 55.5151L61.5974 51.2436C63.093 54.1138 65.8794 56.3839 70.4333 56.3839C76.1437 56.3839 80.0161 52.4454 80.0161 45.9698V45.3681C78.1815 47.6382 74.92 49.3741 70.1613 49.3741C60.7128 49.3741 53.1694 42.1649 53.1694 32.3509C53.1694 22.804 61.0535 14.9946 71.385 14.9946C81.9196 14.9946 89.6694 22.4034 89.6694 32.3509V45.7027C89.6694 57.4521 81.5117 65.062 70.5692 65.062ZM71.249 40.4289C76.0749 40.4289 79.8818 36.8894 79.8818 32.1514C79.8818 27.4101 76.0749 23.9398 71.249 23.9398C66.4904 23.9398 62.6851 27.4117 62.6851 32.1514C62.6851 36.891 66.4904 40.4289 71.249 40.4289ZM32.8832 49.8423C22.5517 49.8423 14.6675 41.9637 14.6675 32.3509C14.6675 22.804 22.6188 14.927 32.8832 14.927C43.2818 14.927 51.1676 22.8715 51.1676 32.3509C51.1676 41.9637 43.2146 49.8407 32.8832 49.8407V49.8423ZM32.8832 40.9614C37.845 40.9614 41.5159 37.0905 41.5159 32.4184C41.5159 27.7447 37.845 23.8722 32.8832 23.8722C27.9197 23.8722 24.3192 27.7447 24.3192 32.4168C24.3192 37.0905 27.9214 40.9614 32.8832 40.9614ZM0 0.708008H9.65167V48.9735H0V0.708008ZM134.324 11.1655C134.324 12.2323 133.893 13.2553 133.125 14.0096C132.357 14.7639 131.315 15.1877 130.229 15.1877C129.143 15.1877 128.101 14.7639 127.333 14.0096C126.565 13.2553 126.133 12.2323 126.133 11.1655C126.133 10.0988 126.565 9.07576 127.333 8.32146C128.101 7.56717 129.143 7.14341 130.229 7.14341C131.315 7.14341 132.357 7.56717 133.125 8.32146C133.893 9.07576 134.324 10.0988 134.324 11.1655Z" fill="#0E0E0E"/>
</svg>
