<svg width="135" height="65" viewBox="0 0 135 65" fill="none" xmlns="http://www.w3.org/2000/svg">
<path d="M111.546 49.4883C101.215 49.4883 93.3306 41.6097 93.3306 31.9969C93.3306 22.45 101.284 14.573 111.546 14.573C121.947 14.573 129.831 22.5175 129.831 31.9969C129.831 41.6097 121.878 49.4867 111.546 49.4867V49.4883ZM111.546 40.6074C116.51 40.6074 120.179 36.7365 120.179 32.0644C120.179 27.3907 116.51 23.5182 111.546 23.5182C106.584 23.5182 102.982 27.3907 102.982 32.0628C102.982 36.7365 106.584 40.6074 111.546 40.6074ZM70.5692 64.708C62.6851 64.708 56.6356 61.3037 53.5772 55.1611L61.5974 50.8896C63.093 53.7598 65.8794 56.0299 70.4333 56.0299C76.1437 56.0299 80.0161 52.0914 80.0161 45.6158V45.0141C78.1815 47.2842 74.92 49.0201 70.1613 49.0201C60.7128 49.0201 53.1694 41.8109 53.1694 31.9969C53.1694 22.45 61.0535 14.6406 71.385 14.6406C81.9196 14.6406 89.6694 22.0493 89.6694 31.9969V45.3487C89.6694 57.0981 81.5117 64.708 70.5692 64.708ZM71.249 40.0749C76.0749 40.0749 79.8818 36.5354 79.8818 31.7974C79.8818 27.0561 76.0749 23.5858 71.249 23.5858C66.4904 23.5858 62.6851 27.0577 62.6851 31.7974C62.6851 36.537 66.4904 40.0749 71.249 40.0749ZM32.8832 49.4883C22.5517 49.4883 14.6675 41.6097 14.6675 31.9969C14.6675 22.45 22.6188 14.573 32.8832 14.573C43.2818 14.573 51.1676 22.5175 51.1676 31.9969C51.1676 41.6097 43.2146 49.4867 32.8832 49.4867V49.4883ZM32.8832 40.6074C37.845 40.6074 41.5159 36.7365 41.5159 32.0644C41.5159 27.3907 37.845 23.5182 32.8832 23.5182C27.9197 23.5182 24.3192 27.3907 24.3192 32.0628C24.3192 36.7365 27.9214 40.6074 32.8832 40.6074ZM0 0.354004H9.65167V48.6195H0V0.354004ZM134.324 10.8115C134.324 11.8783 133.893 12.9013 133.125 13.6556C132.357 14.4099 131.315 14.8337 130.229 14.8337C129.143 14.8337 128.101 14.4099 127.333 13.6556C126.565 12.9013 126.133 11.8783 126.133 10.8115C126.133 9.7448 126.565 8.72175 127.333 7.96746C128.101 7.21316 129.143 6.7894 130.229 6.7894C131.315 6.7894 132.357 7.21316 133.125 7.96746C133.893 8.72175 134.324 9.7448 134.324 10.8115Z" fill="white"/>
</svg>
